<?xml version="1.0" encoding="utf-8"?>
<!-- Generator: Adobe Illustrator 24.1.1, SVG Export Plug-In . SVG Version: 6.00 Build 0)  -->
<svg version="1.1" id="Capa_1" xmlns="http://www.w3.org/2000/svg" xmlns:xlink="http://www.w3.org/1999/xlink" x="0px" y="0px"
	 viewBox="0 0 908.91 596.44" style="enable-background:new 0 0 908.91 596.44;" xml:space="preserve">
<style type="text/css">
	.st0{fill:#01C0C0;}
	.st1{fill:#014079;}
	.st2{fill:#FFFFFF;}
</style>
<g>
	<g>
		<path class="st0" d="M555.03,179.79c0,53.65-42.02,97.5-94.94,100.41c-1.87,0.11-3.74,0.16-5.63,0.16
			c-55.55,0-100.57-45.03-100.57-100.57S398.91,79.22,454.46,79.22c1.89,0,3.76,0.05,5.63,0.16
			C513.01,82.29,555.03,126.14,555.03,179.79z"/>
		<path class="st1" d="M460.09,79.38V280.2c-1.87,0.11-3.74,0.16-5.63,0.16c-55.55,0-100.57-45.03-100.57-100.57
			S398.91,79.22,454.46,79.22C456.35,79.22,458.22,79.27,460.09,79.38z"/>
	</g>
	<path class="st2" d="M468.61,216.67l73.38-49.79C541.99,166.88,530.2,254.01,468.61,216.67z"/>
	<path class="st2" d="M442.4,216.67l-73.38-49.79C369.02,166.88,380.81,254.01,442.4,216.67z"/>
</g>
<g>
	<path class="st1" d="M634.47,186.45v11.31h-11.32c-12.19,0.8-14.88,10.82-15.38,16.98v28.29c0,12.66-10.26,22.92-22.92,22.92
		h-17.41v-11.02h9.43c8.57,0,15.52-6.95,15.52-15.53v-26.2c0-3.37,0.74-6.73,2.3-9.72c5.63-10.79,15.4-12.1,15.4-12.1
		c-6.08-0.83-10.23-3.6-13.06-7c-3.11-3.74-4.64-8.55-4.64-13.41v-27.32c0-8.58-6.95-15.53-15.52-15.53h-9.43v-11.31h17.41
		c12.66,0,22.92,10.26,22.92,22.92v34.68c4.7,11.64,16.54,12.04,16.54,12.04H634.47z"/>
</g>
<g>
	<path class="st0" d="M274.78,186.45v11.31h11.32c12.19,0.8,14.88,10.82,15.38,16.98v28.29c0,12.66,10.26,22.92,22.92,22.92h17.41
		v-11.02h-9.43c-8.57,0-15.52-6.95-15.52-15.53v-26.2c0-3.37-0.74-6.73-2.3-9.72c-5.63-10.79-15.4-12.1-15.4-12.1
		c6.08-0.83,10.23-3.6,13.06-7c3.11-3.74,4.64-8.55,4.64-13.41v-27.32c0-8.58,6.95-15.53,15.52-15.53h9.43v-11.31H324.4
		c-12.66,0-22.92,10.26-22.92,22.92v34.68c-4.7,11.64-16.54,12.04-16.54,12.04H274.78z"/>
</g>
<g>
	<g>
		<polygon class="st1" points="142.19,347.31 142.19,320.87 100.05,320.87 78.93,320.87 70.46,320.87 70.46,436.75 100.05,436.75 
			100.05,398.82 138.5,398.82 138.5,372.39 100.05,372.39 100.05,347.31 		"/>
		<path class="st1" d="M241.44,393.56c10.38-7.66,17.12-19.97,17.12-33.85v0c0-21.44-17.38-38.83-38.83-38.83h-24.09h-13.2h-16.4
			v115.87h29.59v-35h14.2l21.34,35h33.49v-4.66L241.44,393.56z M195.64,347.31h19.6c8.01,0,14.51,6.5,14.51,14.51v0.38
			c0,8.01-6.5,14.51-14.51,14.51h-19.6V347.31z"/>
		<path class="st1" d="M338.79,319.61h-13.74l-52.37,112.48v4.66h29.62l5.91-14.44h47.1l6.23,14.44h29.62v-4.66L338.79,319.61z
			 M318.4,397.42l12.73-31.11l13.43,31.11H318.4z"/>
	</g>
	<g>
		<polygon class="st0" points="745.76,320.75 717.18,320.75 687.58,320.75 659.24,320.75 659.24,346.71 687.58,346.71 
			687.58,436.62 717.18,436.62 717.18,346.71 745.76,346.71 		"/>
		<polygon class="st0" points="793.91,410.66 793.91,389.91 833.58,389.91 833.58,363.95 793.91,363.95 793.91,346.71 
			836.71,346.71 836.71,320.75 793.91,320.75 770.2,320.75 764.32,320.75 764.32,436.62 771.95,436.62 793.91,436.62 838.46,436.62 
			838.46,410.66 		"/>
		<path class="st0" d="M588.18,318.29c-32.88,0-59.53,27.04-59.53,60.4c0,33.36,26.65,60.4,59.53,60.4s59.53-27.04,59.53-60.4
			C647.71,345.33,621.06,318.29,588.18,318.29z M588.25,411.8c-16.36,0-29.62-14.57-29.62-32.54s13.26-32.54,29.62-32.54
			c16.36,0,29.62,14.57,29.62,32.54S604.61,411.8,588.25,411.8z"/>
	</g>
	<g>
		<path class="st0" d="M512.99,378.12c0,31.64-23.28,57.6-52.9,60.18c-1.61,0.15-3.24,0.22-4.88,0.22
			c-31.92,0-57.79-27.04-57.79-60.4c0-33.35,25.87-60.39,57.79-60.39c1.64,0,3.27,0.07,4.88,0.21
			c23.83,2.08,43.56,19.29,50.36,42.42h-29.11c-4.77-7.58-12.42-12.86-21.25-13.98c-1.16-0.15-2.35-0.23-3.55-0.23
			c-16.58,0-30.02,14.57-30.02,32.54c0,17.97,13.44,32.54,30.02,32.54c1.2,0,2.39-0.08,3.55-0.23c9.15-1.17,17.03-6.8,21.77-14.83
			h-20.59v-25.86h51.22C512.81,372.87,512.99,375.47,512.99,378.12z"/>
		<path class="st1" d="M426.52,378.69c0,17.97,13.44,32.54,30.02,32.54c1.2,0,2.39-0.08,3.55-0.23v27.3
			c-1.61,0.15-3.24,0.22-4.88,0.22c-31.92,0-57.79-27.04-57.79-60.4c0-33.35,25.87-60.39,57.79-60.39c1.64,0,3.27,0.07,4.88,0.21
			v28.44c-1.16-0.15-2.35-0.23-3.55-0.23C439.96,346.15,426.52,360.72,426.52,378.69z"/>
	</g>
</g>
<g>
	<path class="st1" d="M201.19,517.6c-7.82,0-12.95-4.4-13.18-10.28h4.13c0.34,3.19,2.74,7.04,9.04,7.04c5.42,0,8.6-3.13,8.6-7.09
		c0-11.33-21.44-4.18-21.44-18.64c0-5.94,4.97-10.28,12.51-10.28c7.43,0,11.89,4.07,12.56,9.35h-4.24
		c-0.45-2.69-3.07-5.99-8.49-6.05c-4.58-0.05-8.37,2.42-8.37,6.87c0,11.11,21.44,4.29,21.44,18.59
		C213.75,512.32,209.45,517.6,201.19,517.6z"/>
	<path class="st1" d="M237.54,517.6c-10.56,0-18.64-8.08-18.64-19.63c0-11.49,8.08-19.63,18.64-19.63
		c10.61,0,18.64,8.14,18.64,19.63C256.18,509.52,248.15,517.6,237.54,517.6z M237.54,514.25c8.35,0,14.76-6.21,14.76-16.28
		c0-10.06-6.41-16.22-14.76-16.22c-8.35,0-14.76,6.16-14.76,16.22C222.77,508.03,229.18,514.25,237.54,514.25z"/>
	<path class="st1" d="M262.81,478.78h22.36v3.19h-18.22v14.35h15.38v3.19h-15.38v17.71h-4.14V478.78z"/>
	<path class="st1" d="M288.19,478.78h25.63v3.19h-10.83v35.25h-3.91v-35.25h-10.89V478.78z"/>
	<path class="st1" d="M316.38,478.78h3.94l8.4,33.71l9.4-33.71h4.1l9.14,33.71l8.46-33.71h3.94l-10.4,38.44h-4.1l-9.24-32.78
		l-9.45,32.78l-3.99,0.05L316.38,478.78z"/>
	<path class="st1" d="M390.47,508.09h-18.75l-3.6,9.13h-4.36l15.03-37.95h4.66l14.97,37.95h-4.36L390.47,508.09z M381.09,484.11
		l-8.14,20.79h16.27L381.09,484.11z"/>
	<path class="st1" d="M416.68,478.78c9.96,0,14.63,4.84,14.63,11.16c0,5.28-3.32,9.73-10.57,10.94l11.06,16.33h-5.16L416,501.16
		h-7.93v16.06h-4.3v-38.44H416.68z M416.68,482.02h-8.6v16h8.66c7.01,0,10.14-3.41,10.14-8.08
		C426.88,485.1,423.93,482.02,416.68,482.02z"/>
	<path class="st1" d="M462.81,481.91h-18.38v14.35h16.51v3.19h-16.51v14.57h18.38v3.19h-22.75v-38.5h22.75V481.91z"/>
	<path class="st1" d="M484.76,478.78h22.92v3.19H489v14.35h15.77v3.19H489v17.71h-4.25V478.78z"/>
	<path class="st1" d="M537.01,508.09h-18.78l-3.6,9.13h-4.37l15.06-37.95h4.67l15,37.95h-4.37L537.01,508.09z M527.62,484.11
		l-8.15,20.79h16.3L527.62,484.11z"/>
	<path class="st1" d="M565.72,478.34c7.91,0,13.8,4.29,16.33,11.66h-4.16c-1.98-5.11-6.14-8.3-12.17-8.3
		c-7.76,0-13.7,6.21-13.7,16.28c0,10.01,5.94,16.22,13.7,16.22c6.04,0,10.2-3.19,12.17-8.19h4.16c-2.54,7.26-8.42,11.55-16.33,11.55
		c-9.84,0-17.35-8.03-17.35-19.58C548.37,486.42,555.88,478.34,565.72,478.34z"/>
	<path class="st1" d="M585.59,478.78h27.06v3.19h-11.44v35.25h-4.13v-35.25h-11.5V478.78z"/>
	<path class="st1" d="M634.91,517.6c-10.11,0-17.85-8.08-17.85-19.63c0-11.49,7.74-19.63,17.85-19.63
		c10.16,0,17.85,8.14,17.85,19.63C652.76,509.52,645.07,517.6,634.91,517.6z M634.91,514.25c7.99,0,14.13-6.21,14.13-16.28
		c0-10.06-6.14-16.22-14.13-16.22c-7.99,0-14.13,6.16-14.13,16.22C620.78,508.03,626.92,514.25,634.91,514.25z"/>
	<path class="st1" d="M673.17,478.78c9.97,0,14.65,4.84,14.65,11.16c0,5.28-3.32,9.73-10.59,10.94l11.08,16.33h-5.17l-10.65-16.06
		h-7.94v16.06h-4.31v-38.44H673.17z M673.17,482.02h-8.62v16h8.68c7.02,0,10.16-3.41,10.16-8.08
		C683.39,485.1,680.43,482.02,673.17,482.02z"/>
	<path class="st1" d="M692.39,478.78h4.41l10.16,19.96l10.11-19.96h4.35l-12.51,23.48v14.96h-3.91v-14.96L692.39,478.78z"/>
</g>
</svg>
